<?xml version="1.0" encoding="UTF-8" standalone="no"?>
<svg
   xmlns:dc="http://purl.org/dc/elements/1.1/"
   xmlns:cc="http://creativecommons.org/ns#"
   xmlns:rdf="http://www.w3.org/1999/02/22-rdf-syntax-ns#"
   xmlns:svg="http://www.w3.org/2000/svg"
   xmlns="http://www.w3.org/2000/svg"
   xmlns:sodipodi="http://sodipodi.sourceforge.net/DTD/sodipodi-0.dtd"
   xmlns:inkscape="http://www.inkscape.org/namespaces/inkscape"
   version="1.1"
   id="svg2"
   x="0px"
   y="0px"
   width="97.3333333333px"
   height="100px"
   viewBox="0 0 292 300"
   enable-background="new 0 0 292 300"
   xml:space="preserve"
   inkscape:version="0.48.2 r9819"
   sodipodi:docname="rabbit.svg"><metadata
   id="metadata8238"><rdf:RDF><cc:Work
       rdf:about=""><dc:format>image/svg+xml</dc:format><dc:type
         rdf:resource="http://purl.org/dc/dcmitype/StillImage" /><dc:title></dc:title></cc:Work></rdf:RDF></metadata><defs
   id="defs8236" /><sodipodi:namedview
   pagecolor="#ffffff"
   bordercolor="#666666"
   borderopacity="1"
   objecttolerance="10"
   gridtolerance="10"
   guidetolerance="10"
   inkscape:pageopacity="0"
   inkscape:pageshadow="2"
   inkscape:window-width="640"
   inkscape:window-height="480"
   id="namedview8234"
   showgrid="false"
   inkscape:zoom="2.36"
   inkscape:cx="48.666668"
   inkscape:cy="47.28572"
   inkscape:window-x="202"
   inkscape:window-y="79"
   inkscape:window-maximized="0"
   inkscape:current-layer="svg2" />
<path
   id="path993"
   stroke="#000000"
   stroke-width="0.7567"
   stroke-linecap="round"
   stroke-linejoin="round"
   d="M222.627,229.01  c-5.466,15.629-7.838,34.78,5.85,45.098c5.467,2.906,15.268,4.608,10.477,15.969c-2.182,5.171-8.023,4.452-14.443-1.947  c-2.905,0.612-5.709,1.812-9.307-1.6l-14.025-20.062l-4.646-25.863l-5.893-17.557l23.75-1.625L222.627,229.01z"
   inkscape:export-filename="/Users/msh801/github/assess/BATAssessment/figures/rabbit.png"
   inkscape:export-xdpi="1060.309"
   inkscape:export-ydpi="1060.309" />
<path
   id="path941"
   stroke="#000000"
   stroke-width="0.7567"
   stroke-linecap="round"
   stroke-linejoin="round"
   d="M246.057,121.486  c7.345-14.642,15.021-28.833,19.291-47.655c10.22-45.049-0.396-91.878-32.514-24.69l-5.451,28.865l0.963,42.648L246.057,121.486z"
   inkscape:export-filename="/Users/msh801/github/assess/BATAssessment/figures/rabbit.png"
   inkscape:export-xdpi="1060.309"
   inkscape:export-ydpi="1060.309" />
<path
   id="path991"
   stroke="#000000"
   stroke-width="0.7567"
   stroke-linecap="round"
   stroke-linejoin="round"
   d="M47.15,267.83  c-9.259,20.286-33.2-4.596-38.379-20.147c-3.888-11.673-4.345-28.939,8.366-34.716c14.753-6.705,30.438,30.844,30.37,48.355  C47.399,264.848,48.821,264.725,47.15,267.83L47.15,267.83z"
   inkscape:export-filename="/Users/msh801/github/assess/BATAssessment/figures/rabbit.png"
   inkscape:export-xdpi="1060.309"
   inkscape:export-ydpi="1060.309" />
<path
   id="path939"
   stroke="#000000"
   stroke-width="0.7567"
   stroke-linecap="round"
   stroke-linejoin="round"
   d="M279.076,147.942  c-2.696-29.693-12.914-30.764-39.158-33.97c-2.421-16.82-3.194-36.135-3.564-56.062c-0.771-41.55-14.396-73.024-33.29-32.789  c-9.416,20.05-8.001,41.183,4.065,58.249c11.465,12.247,16.316,20.678,9.775,36.175c-13.699,7.399-26.67,16.375-37.631,29.698  c-45.452-3.971-79.012-14.86-119.554,20.773c-35.374,31.09-51.983,71.709-8.946,107.914c-4.582,6.404-3.648,12.928,7.275,10.711  l79.305-3.244c9.84-0.873,19.336,5.744,23.508-5.29c3.598-9.515-9.393-14.117-15.755-15.927c-8.694-4.834-9.658-8.059-8.583-9.869  c1.037-1.746,16.021,2.103,16.481,0.057c11.097,2.85,21.608,9.787,34.705-1.308c28.646,3.28,47.517-26.876,62.15-71.534  c6.663-0.213,13.331-0.307,19.868-4.785c3.328,1.092,5.994,0.414,9.567-1.022c5.368,1.955,6.877-4.397,6.179-8.453  C284.222,159.998,282.209,152.767,279.076,147.942L279.076,147.942z"
   inkscape:export-filename="/Users/msh801/github/assess/BATAssessment/figures/rabbit.png"
   inkscape:export-xdpi="1060.309"
   inkscape:export-ydpi="1060.309" />
<path
   id="path962"
   stroke="#000000"
   stroke-width="0.7567"
   stroke-linecap="round"
   stroke-linejoin="round"
   d="M249.86,181.525  c-8.128-1.28-15.831-3.328-20.642-10.585"
   inkscape:export-filename="/Users/msh801/github/assess/BATAssessment/figures/rabbit.png"
   inkscape:export-xdpi="1060.309"
   inkscape:export-ydpi="1060.309" />
<path
   id="path964"
   fill="#000000"
   stroke="#000000"
   stroke-width="0.7567"
   stroke-linecap="round"
   stroke-linejoin="round"
   d="  M279.296,175.718c1.276-3.788-3.479-4.079-3.241-6.112"
   inkscape:export-filename="/Users/msh801/github/assess/BATAssessment/figures/rabbit.png"
   inkscape:export-xdpi="1060.309"
   inkscape:export-ydpi="1060.309" />
<path
   id="path968"
   fill="#000000"
   stroke="#000000"
   stroke-width="0.7567"
   stroke-linecap="round"
   stroke-linejoin="round"
   d="  M247.188,139.749c-0.6,2.215,0.71,4.497,2.924,5.096c2.215,0.6,4.496-0.709,5.097-2.924c0.002-0.007,0.004-0.015,0.006-0.021  c0.6-2.215-0.71-4.497-2.925-5.096c-2.214-0.6-4.496,0.709-5.096,2.924C247.191,139.734,247.189,139.742,247.188,139.749z"
   inkscape:export-filename="/Users/msh801/github/assess/BATAssessment/figures/rabbit.png"
   inkscape:export-xdpi="1060.309"
   inkscape:export-ydpi="1060.309" />
<path
   id="path989"
   stroke="#000000"
   stroke-width="0.7567"
   stroke-linecap="round"
   stroke-linejoin="round"
   d="M156.349,232.854  c3.733,15.085-5.747,28.11-11.243,31.326c-8.921-2.477-33.916,9.063-53.976,4.744c26.225-21.225,13.324-63.582-8.338-67.034"
   inkscape:export-filename="/Users/msh801/github/assess/BATAssessment/figures/rabbit.png"
   inkscape:export-xdpi="1060.309"
   inkscape:export-ydpi="1060.309" />
<path
   id="path995"
   stroke="#000000"
   stroke-width="0.7567"
   stroke-linecap="round"
   stroke-linejoin="round"
   d="M202.088,230.192  c4.197,8.541,3.056,11.814,4.029,19.468c1.002,7.873,3.467,15.536,7.227,22.237c5.704,1.286,15.514,4.903,10.89,14.909  c-2.419,5.234-23.147-0.271-24.163-2.488c-9.443-13.861-8.742-31.283-19.332-45.287c-5.42-7.166-6.34-23.238-2.081-32.287"
   inkscape:export-filename="/Users/msh801/github/assess/BATAssessment/figures/rabbit.png"
   inkscape:export-xdpi="1060.309"
   inkscape:export-ydpi="1060.309" />
<path
   id="path1019"
   stroke="#000000"
   stroke-width="0.7567"
   stroke-linecap="round"
   stroke-linejoin="round"
   d="M153.791,282.361  c1.962-2.375,1.799-6.199-0.618-8.236"
   inkscape:export-filename="/Users/msh801/github/assess/BATAssessment/figures/rabbit.png"
   inkscape:export-xdpi="1060.309"
   inkscape:export-ydpi="1060.309" />
<path
   id="path1021"
   stroke="#000000"
   stroke-width="0.7567"
   stroke-linecap="round"
   stroke-linejoin="round"
   d="M147.091,282.41  c2.163-2.264,1.989-6.264-0.428-8.3"
   inkscape:export-filename="/Users/msh801/github/assess/BATAssessment/figures/rabbit.png"
   inkscape:export-xdpi="1060.309"
   inkscape:export-ydpi="1060.309" />
<path
   id="path1042"
   stroke="#000000"
   stroke-width="0.7567"
   stroke-linecap="round"
   stroke-linejoin="round"
   d="M218.601,286.72  c1.963-2.374,1.8-6.199-0.618-8.235"
   inkscape:export-filename="/Users/msh801/github/assess/BATAssessment/figures/rabbit.png"
   inkscape:export-xdpi="1060.309"
   inkscape:export-ydpi="1060.309" />
<path
   id="path1044"
   stroke="#000000"
   stroke-width="0.7567"
   stroke-linecap="round"
   stroke-linejoin="round"
   d="M211.9,286.77  c2.164-2.264,1.99-6.264-0.428-8.301"
   inkscape:export-filename="/Users/msh801/github/assess/BATAssessment/figures/rabbit.png"
   inkscape:export-xdpi="1060.309"
   inkscape:export-ydpi="1060.309" />
<path
   id="path1046"
   stroke="#000000"
   stroke-width="0.7567"
   stroke-linecap="round"
   stroke-linejoin="round"
   d="M233.032,290.299  c1.963-2.375,1.8-6.199-0.618-8.236"
   inkscape:export-filename="/Users/msh801/github/assess/BATAssessment/figures/rabbit.png"
   inkscape:export-xdpi="1060.309"
   inkscape:export-ydpi="1060.309" />
</svg>