<?xml version="1.0" encoding="UTF-8" standalone="no"?>
<svg
   xmlns:dc="http://purl.org/dc/elements/1.1/"
   xmlns:cc="http://creativecommons.org/ns#"
   xmlns:rdf="http://www.w3.org/1999/02/22-rdf-syntax-ns#"
   xmlns:svg="http://www.w3.org/2000/svg"
   xmlns="http://www.w3.org/2000/svg"
   xmlns:sodipodi="http://sodipodi.sourceforge.net/DTD/sodipodi-0.dtd"
   xmlns:inkscape="http://www.inkscape.org/namespaces/inkscape"
   version="1.1"
   id="Layer_1"
   x="0px"
   y="0px"
   width="100px"
   height="100px"
   viewBox="0 0 100 100"
   enable-background="new 0 0 100 100"
   xml:space="preserve"
   inkscape:version="0.48.2 r9819"
   sodipodi:docname="checked.svg"><metadata
   id="metadata3268"><rdf:RDF><cc:Work
       rdf:about=""><dc:format>image/svg+xml</dc:format><dc:type
         rdf:resource="http://purl.org/dc/dcmitype/StillImage" /><dc:title></dc:title></cc:Work></rdf:RDF></metadata><defs
   id="defs3266" /><sodipodi:namedview
   pagecolor="#ffffff"
   bordercolor="#666666"
   borderopacity="1"
   objecttolerance="10"
   gridtolerance="10"
   guidetolerance="10"
   inkscape:pageopacity="0"
   inkscape:pageshadow="2"
   inkscape:window-width="1531"
   inkscape:window-height="971"
   id="namedview3264"
   showgrid="false"
   inkscape:zoom="2.36"
   inkscape:cx="50"
   inkscape:cy="50"
   inkscape:window-x="168"
   inkscape:window-y="0"
   inkscape:window-maximized="0"
   inkscape:current-layer="Layer_1" />
<path
   d="M94.414,1.001C83.248,5.244,42.827,63.756,42.827,63.756L28.561,40.739l-12.298,7.398l21.652,33.261h9.602  c0,0,32.87-46.548,46.897-58.065V1.001z"
   id="path3260"
   inkscape:export-filename="/Users/msh801/github/BATAssessment/images/checked.png"
   inkscape:export-xdpi="22.5"
   inkscape:export-ydpi="22.5" />
<path
   d="M6.62,83.479c0,5.394,4.373,9.768,9.768,9.768l52.468,0.062c5.395,0,9.768-4.373,9.768-9.768l-0.085-31.474h5.787v31.537  C84.325,92.107,77.433,99,68.93,99L15.76,98.938c-8.11,0-14.683-6.575-14.683-14.682L1,31.161c0-8.503,6.893-15.396,15.396-15.396  l48.809-0.079v5.794l-48.738-0.022c-5.394,0-9.768,4.372-9.768,9.768L6.62,83.479z"
   id="path3262"
   inkscape:export-filename="/Users/msh801/github/BATAssessment/images/checked.png"
   inkscape:export-xdpi="22.5"
   inkscape:export-ydpi="22.5" />
<rect
   style="fill:none;stroke:none"
   id="rect2984"
   width="100"
   height="100"
   x="0"
   y="0"
   inkscape:export-filename="/Users/msh801/github/BATAssessment/images/checked.png"
   inkscape:export-xdpi="22.5"
   inkscape:export-ydpi="22.5" /></svg>