<?xml version="1.0" encoding="UTF-8" standalone="no"?>
<!-- Created with Inkscape (http://www.inkscape.org/) -->

<svg
   xmlns:dc="http://purl.org/dc/elements/1.1/"
   xmlns:cc="http://creativecommons.org/ns#"
   xmlns:rdf="http://www.w3.org/1999/02/22-rdf-syntax-ns#"
   xmlns:svg="http://www.w3.org/2000/svg"
   xmlns="http://www.w3.org/2000/svg"
   version="1.1"
   width="100"
   height="100"
   viewBox="0 0 100 100"
   id="Layer_1"
   xml:space="preserve"><metadata
   id="metadata11"><rdf:RDF><cc:Work
       rdf:about=""><dc:format>image/svg+xml</dc:format><dc:type
         rdf:resource="http://purl.org/dc/dcmitype/StillImage" /><dc:title></dc:title></cc:Work></rdf:RDF></metadata><defs
   id="defs9" />
<path
   d="M 94.414,1.001 C 83.248,5.244 42.827,63.756 42.827,63.756 L 28.561,40.739 16.263,48.137 37.915,81.398 h 9.602 c 0,0 32.87,-46.548 46.897,-58.065 V 1.001 z"
   id="path3"
   style="opacity:0.38793102" />
<path
   d="m 6.62,83.479 c 0,5.394 4.373,9.768 9.768,9.768 l 52.468,0.062 c 5.395,0 9.768,-4.373 9.768,-9.768 L 78.539,52.067 h 5.787 V 83.604 C 84.325,92.107 77.433,99 68.93,99 L 15.76,98.938 C 7.65,98.938 1.077,92.363 1.077,84.256 L 1,31.161 C 1,22.658 7.893,15.765 16.396,15.765 L 65.205,15.686 V 21.48 L 16.467,21.458 c -5.394,0 -9.768,4.372 -9.768,9.768 L 6.62,83.479 z"
   id="path5" />
</svg>