<?xml version="1.0" encoding="UTF-8" standalone="no"?>
<!-- Created with Inkscape (http://www.inkscape.org/) -->

<svg
   xmlns:dc="http://purl.org/dc/elements/1.1/"
   xmlns:cc="http://creativecommons.org/ns#"
   xmlns:rdf="http://www.w3.org/1999/02/22-rdf-syntax-ns#"
   xmlns:svg="http://www.w3.org/2000/svg"
   xmlns="http://www.w3.org/2000/svg"
   xmlns:sodipodi="http://sodipodi.sourceforge.net/DTD/sodipodi-0.dtd"
   xmlns:inkscape="http://www.inkscape.org/namespaces/inkscape"
   version="1.1"
   width="100"
   height="100"
   viewBox="0 0 100 100"
   id="Layer_1"
   xml:space="preserve"
   inkscape:version="0.48.2 r9819"
   sodipodi:docname="unchecked.svg"><sodipodi:namedview
   pagecolor="#ffffff"
   bordercolor="#666666"
   borderopacity="1"
   objecttolerance="10"
   gridtolerance="10"
   guidetolerance="10"
   inkscape:pageopacity="0"
   inkscape:pageshadow="2"
   inkscape:window-width="1430"
   inkscape:window-height="845"
   id="namedview7"
   showgrid="false"
   inkscape:zoom="2.36"
   inkscape:cx="50"
   inkscape:cy="50"
   inkscape:window-x="212"
   inkscape:window-y="28"
   inkscape:window-maximized="0"
   inkscape:current-layer="Layer_1" /><metadata
   id="metadata11"><rdf:RDF><cc:Work
       rdf:about=""><dc:format>image/svg+xml</dc:format><dc:type
         rdf:resource="http://purl.org/dc/dcmitype/StillImage" /><dc:title></dc:title></cc:Work></rdf:RDF></metadata><defs
   id="defs9" />

<rect
   style="fill:none;fill-opacity:0.49333335000000000;stroke:none"
   id="rect2984"
   width="100"
   height="100"
   x="0"
   y="0"
   inkscape:export-filename="/Users/msh801/github/BATAssessment/images/unchecked.png"
   inkscape:export-xdpi="22.5"
   inkscape:export-ydpi="22.5" /><path
   d="m 6.62,83.479 c 0,5.394 4.373,9.768 9.768,9.768 l 52.468,0.062 c 5.395,0 9.768,-4.373 9.768,-9.768 L 78.539,52.067 h 5.787 V 83.604 C 84.325,92.107 77.433,99 68.93,99 L 15.76,98.938 C 7.65,98.938 1.077,92.363 1.077,84.256 L 1,31.161 C 1,22.658 7.893,15.765 16.396,15.765 L 65.205,15.686 V 21.48 L 16.467,21.458 c -5.394,0 -9.768,4.372 -9.768,9.768 L 6.62,83.479 z"
   id="path5"
   inkscape:export-filename="/Users/msh801/github/BATAssessment/images/unchecked.png"
   inkscape:export-xdpi="22.5"
   inkscape:export-ydpi="22.5" />
<path
   d="m 78.706,83.479 c 0,5.394 -4.373,9.768 -9.768,9.768 L 16.47,93.309 c -5.395,0 -9.768,-4.373 -9.768,-9.768 L 6.787,52.067 H 1 V 83.604 C 1.001,92.107 7.893,99 16.396,99 l 53.17,-0.062 c 8.11,0 14.683,-6.575 14.683,-14.682 l 0.077,-53.095 c 0,-8.503 -6.893,-15.396 -15.396,-15.396 L 20.121,15.686 v 5.794 l 48.738,-0.022 c 5.394,0 9.768,4.372 9.768,9.768 l 0.079,52.253 z"
   id="path3007"
   inkscape:export-filename="/Users/msh801/github/BATAssessment/images/unchecked.png"
   inkscape:export-xdpi="22.5"
   inkscape:export-ydpi="22.5" /></svg>