<svg xmlns:x="http://ns.adobe.com/Extensibility/1.0/" xmlns:i="http://ns.adobe.com/AdobeIllustrator/10.0/" xmlns:graph="http://ns.adobe.com/Graphs/1.0/" xmlns="http://www.w3.org/2000/svg" xmlns:xlink="http://www.w3.org/1999/xlink" version="1.1" x="0px" y="0px" width="100px" height="100px" viewBox="0 0 100 100" enable-background="new 0 0 100 100" xml:space="preserve">
<metadata>
	<sfw xmlns="http://ns.adobe.com/SaveForWeb/1.0/">
		<slices/>
		<sliceSourceBounds height="1780.628" width="870" bottomLeftOrigin="true" x="-192" y="-1744.628"/>
	</sfw>
</metadata>
<g id="Captions">
</g>
<g id="Your_Icon">
	<path fill="#000000" d="M53.371,95h-3.065c-0.379,0-0.734-0.191-0.945-0.506c-0.21-0.319-0.248-0.719-0.102-1.069   c0.455-1.078,0.878-2.156,1.267-3.229c-6.045,2.319-11.555,0.683-16.249-4.778c-3.003-2.671-5.279-6.38-6.663-10.909   c-1.162-3.784-3.873-4.978-8.46-3.9c-0.506,0.129-1.025-0.115-1.265-0.576c-0.244-0.457-0.143-1.021,0.239-1.366   c9.237-8.367,18.278-7.685,26.309,1.956c2.686,4.277,5.381,8.43,8.083,12.444c1.548-7.848,1.612-15.815,0.188-23.735   c-3.4,1.69-6.954,1.584-10.487-0.328c-2.414,0.08-4.728-0.138-6.888-0.652c-0.302-0.07-0.563-0.266-0.719-0.532   c-1.107-1.907-2.081-4.041-2.897-6.34c-4.468-3.863-5.272-8.779-2.329-14.231c0.054-0.098,0.12-0.187,0.195-0.267l0.108-0.106   c-0.162-0.106-0.321-0.227-0.477-0.351c-4.616-3.842-5.553-8.73-2.73-14.17c-0.078-2.449,0.14-4.77,0.654-6.898   c0.071-0.302,0.266-0.563,0.537-0.719c1.912-1.104,4.041-2.081,6.333-2.897c3.873-4.472,8.755-5.288,14.234-2.329   c0.098,0.054,0.186,0.12,0.266,0.2l0.104,0.106c0.108-0.164,0.224-0.319,0.346-0.475c3.973-4.646,8.817-5.568,14.179-2.742   c2.339-0.062,4.601,0.151,6.741,0.661c0.28,0.066,0.524,0.235,0.684,0.475c1.216,1.823,2.254,3.976,3.088,6.393   c4.574,3.883,5.375,8.754,2.313,14.108c-0.049,0.084-0.108,0.164-0.18,0.235c-0.075,0.075-0.15,0.155-0.222,0.235   c0.182,0.142,0.354,0.292,0.519,0.456c4.628,3.763,5.619,8.607,2.8,13.948c0.078,2.529-0.142,4.898-0.652,7.041   c-0.07,0.307-0.266,0.563-0.534,0.724c-1.914,1.108-3.995,2.08-6.191,2.893c-3.811,4.303-8.476,5.226-13.613,2.657   c0.508,4.667,0.748,9.352,0.712,14.001c1.233-2.041,2.489-4.081,3.763-6.122c5.707-7.169,12.322-7.905,19.436-2.44   c0.422,0.324,0.563,0.896,0.338,1.38c-0.227,0.483-0.75,0.745-1.273,0.63c-3.084-0.683-4.812,0.076-5.565,2.587   c-0.979,3.252-2.576,5.944-4.75,8.008c-3.287,3.979-7.471,5.342-12.115,3.744c-0.298,5.67-1.653,11.087-4.037,16.14   C54.21,94.747,53.811,95,53.371,95z M51.996,92.729h0.647c2.28-5.058,3.482-10.502,3.576-16.193c0.004-0.359,0.18-0.692,0.466-0.9   c-0.302-0.223-0.483-0.581-0.466-0.972c0.304-6.819,0-13.767-0.905-20.644c-0.066-0.483,0.187-0.953,0.626-1.166   c0.438-0.218,0.967-0.124,1.309,0.222c0.377,0.386,0.798,0.759,1.273,1.14c1.619,0.87,3.31,1.367,4.862,1.367   c2.406,0,4.561-1.154,6.59-3.522c0.127-0.146,0.293-0.263,0.477-0.329c2.008-0.723,3.913-1.593,5.675-2.577   c0.403-1.908,0.563-4.015,0.475-6.265c-0.009-0.208,0.04-0.412,0.138-0.594c2.511-4.557,1.818-8.19-2.174-11.446   c-0.386-0.373-0.721-0.6-1.083-0.741c-0.308-0.124-0.548-0.382-0.654-0.696c-0.106-0.315-0.068-0.661,0.104-0.949   c0.326-0.537,0.705-1.034,1.131-1.478c2.516-4.49,1.846-8.088-2.103-11.309c-0.166-0.133-0.293-0.315-0.359-0.52   c-0.731-2.187-1.633-4.13-2.684-5.785c-1.906-0.412-3.931-0.581-5.998-0.487c-0.213-0.014-0.413-0.045-0.595-0.143   c-4.539-2.497-8.276-1.854-11.615,2.046c-0.308,0.386-0.545,0.82-0.696,1.295c-0.122,0.373-0.43,0.661-0.812,0.754   c-0.386,0.089-0.788-0.018-1.069-0.297l-1.113-1.109c-4.569-2.408-8.257-1.752-11.469,2.104c-0.133,0.159-0.306,0.279-0.499,0.346   c-2.101,0.732-4.053,1.602-5.813,2.582c-0.404,1.886-0.563,3.939-0.473,6.104c0.009,0.204-0.038,0.408-0.136,0.586   c-2.488,4.609-1.827,8.407,2.023,11.614c0.396,0.319,0.829,0.555,1.311,0.71c0.375,0.124,0.659,0.431,0.752,0.816   c0.094,0.382-0.021,0.79-0.299,1.069l-1.105,1.104c-2.397,4.547-1.71,8.301,2.104,11.468c0.157,0.134,0.277,0.307,0.348,0.502   c0.729,2.107,1.593,4.06,2.573,5.812c1.919,0.413,3.962,0.572,6.109,0.475c0.211-0.026,0.424,0.04,0.61,0.146   c3.392,1.926,6.641,1.837,9.844-0.267c0.313-0.208,0.713-0.243,1.059-0.097c0.351,0.142,0.604,0.452,0.679,0.82   c1.965,9.623,1.81,19.32-0.468,28.837c-0.104,0.435-0.457,0.771-0.898,0.852c-0.106,0.018-0.213,0.018-0.315,0.014   c0.075,0.04,0.151,0.084,0.218,0.142c0.359,0.293,0.501,0.776,0.363,1.221C53.083,89.822,52.568,91.272,51.996,92.729z    M55.261,41.953c-1.872,0-3.624-0.706-5.217-2.095c-3.114,0.071-5.382-1.202-6.854-3.814c-0.058-0.103-0.1-0.218-0.124-0.333   c-0.448-2.219,0.15-4.229,1.732-5.848c-0.251-2.076,0.464-3.917,2.127-5.475c0.115-0.11,0.253-0.19,0.404-0.244   c2.895-0.998,5.627-0.452,7.992,1.602c3.099-0.075,5.381,1.221,6.856,3.815c0.058,0.106,0.1,0.218,0.124,0.333   c0.443,2.134-0.157,4.091-1.739,5.696c0.256,2.188-0.457,4.077-2.125,5.63c-0.115,0.106-0.253,0.19-0.403,0.239   C57.091,41.789,56.157,41.953,55.261,41.953z"/>
</g>
</svg>