<svg xmlns="http://www.w3.org/2000/svg" xmlns:xlink="http://www.w3.org/1999/xlink" version="1.1" id="Layer_1" x="0px" y="0px" width="100px" height="100px" viewBox="0 0 100 100" enable-background="new 0 0 100 100" xml:space="preserve">
<path d="M50.581,0.608c-27.333,0-49.489,22.157-49.489,49.49c0,27.332,22.157,49.489,49.489,49.489  c27.332,0,49.489-22.157,49.489-49.489C100.07,22.765,77.913,0.608,50.581,0.608z M76.367,19.386c0,3.438,2.767,6.229,6.195,6.27  v0.001c-3.411,0.041-6.167,2.804-6.194,6.219h-0.001c-0.028-3.44-2.823-6.22-6.271-6.22C73.56,25.656,76.367,22.849,76.367,19.386z   M74.657,49.985c-0.112,0-0.224,0.004-0.335,0.005v-0.008C74.434,49.983,74.545,49.985,74.657,49.985z M47.24,22.343  c0,0.075-0.003,0.148-0.003,0.223c0-0.074-0.002-0.148-0.002-0.223H47.24z M29.429,14.197c0,7.306,5.879,13.238,13.165,13.325v0.004  c-7.249,0.086-13.105,5.96-13.163,13.216h-0.002c-0.059-7.31-6.002-13.219-13.326-13.219C23.463,27.524,29.429,21.558,29.429,14.197  z M19.483,49.982c0.112,0.001,0.223,0.003,0.334,0.003c-0.111,0-0.222,0.004-0.334,0.005V49.982z M47.237,77.405  c0-0.074-0.002-0.148-0.002-0.223h0.006C47.24,77.257,47.237,77.331,47.237,77.405z M54.64,73.021  c-9.541,0.113-17.249,7.845-17.325,17.395h-0.003c-0.077-9.621-7.898-17.397-17.538-17.397c9.688,0,17.54-7.852,17.54-17.539  c0,9.614,7.737,17.422,17.327,17.536V73.021z M71.526,46.755c-7.437,0.089-13.444,6.115-13.503,13.559h-0.003  c-0.061-7.499-6.157-13.561-13.671-13.561c7.552,0,13.672-6.121,13.672-13.671c0,7.495,6.031,13.58,13.505,13.669V46.755z   M81.39,70.998h-0.002c-0.031-3.992-3.276-7.217-7.274-7.217c4.019,0,7.275-3.257,7.275-7.276c0,3.989,3.21,7.228,7.188,7.275v0.002  C84.618,63.829,81.422,67.036,81.39,70.998z"/>
<path d="M32.082,169.088c0-0.334,0.01-0.665,0.013-0.998h-0.025C32.072,168.423,32.082,168.754,32.082,169.088z"/>
<path d="M153.576,46.114c0.5-0.006,0.998-0.019,1.499-0.019c-0.501,0-0.999-0.013-1.499-0.019V46.114z"/>
<path fill="#000000" d="M-92.41,46.076v0.038c0.5-0.006,0.998-0.019,1.499-0.019C-91.412,46.095-91.91,46.082-92.41,46.076z"/>
<path fill="#000000" d="M32.095-77.896h-0.025c0.003,0.333,0.013,0.665,0.013,0.999C32.082-77.232,32.092-77.563,32.095-77.896z"/>
</svg>