<?xml version="1.0" encoding="UTF-8" standalone="no"?>
<svg
   xmlns:dc="http://purl.org/dc/elements/1.1/"
   xmlns:cc="http://creativecommons.org/ns#"
   xmlns:rdf="http://www.w3.org/1999/02/22-rdf-syntax-ns#"
   xmlns:svg="http://www.w3.org/2000/svg"
   xmlns="http://www.w3.org/2000/svg"
   xmlns:sodipodi="http://sodipodi.sourceforge.net/DTD/sodipodi-0.dtd"
   xmlns:inkscape="http://www.inkscape.org/namespaces/inkscape"
   version="1.1"
   id="Your_Icon"
   x="0px"
   y="0px"
   width="100px"
   height="100px"
   viewBox="0 0 100 100"
   enable-background="new 0 0 100 100"
   xml:space="preserve"
   inkscape:version="0.48.2 r9819"
   sodipodi:docname="noun_project_9572.svg"
   inkscape:export-filename="/Users/msh801/github/assess/ct-stem/figures/test_tube.png"
   inkscape:export-xdpi="94.129997"
   inkscape:export-ydpi="94.129997"><metadata
   id="metadata19"><rdf:RDF><cc:Work
       rdf:about=""><dc:format>image/svg+xml</dc:format><dc:type
         rdf:resource="http://purl.org/dc/dcmitype/StillImage" /><dc:title></dc:title></cc:Work></rdf:RDF></metadata><defs
   id="defs17" /><sodipodi:namedview
   pagecolor="#ffffff"
   bordercolor="#666666"
   borderopacity="1"
   objecttolerance="10"
   gridtolerance="10"
   guidetolerance="10"
   inkscape:pageopacity="0"
   inkscape:pageshadow="2"
   inkscape:window-width="640"
   inkscape:window-height="480"
   id="namedview15"
   showgrid="false"
   inkscape:zoom="2.36"
   inkscape:cx="50"
   inkscape:cy="50"
   inkscape:window-x="552"
   inkscape:window-y="16"
   inkscape:window-maximized="0"
   inkscape:current-layer="Your_Icon" />
<g
   id="g3">
</g>
<path
   fill="#000000"
   d="M88.41,25.11c0-0.73-0.59-1.33-1.32-1.33h-24.2c-0.729,0-1.319,0.6-1.319,1.33c0,0.23,0.08,0.44,0.18,0.64  l-0.01,0.01l0.3,0.53c1.07,1.88,2.54,4.46,2.54,7.21v14.41L55.81,36.34l-0.09-20.39c4.311-0.53,6.561-3.59,6.561-6.62  c0-1.82-0.78-3.49-2.19-4.72c-1.52-1.32-3.66-2.02-6.189-2.02H34.15c-5.76,0-8.39,3.49-8.39,6.74c0,3.03,2.26,6.09,6.57,6.62  l-0.09,20.39L7.77,68.63c-0.01,0.01-0.01,0.03-0.02,0.05C7.73,68.7,7.72,68.7,7.71,68.72c-2.49,3.971-2.68,8.9-0.48,12.87  c1.9,3.45,5.25,5.5,8.96,5.5h48.44c0.47,5.87,5.55,8.95,10.59,8.96h0.03c5.06,0,10.19-3.1,10.22-9.04V33.5  c0-2.85,1.49-5.48,2.57-7.39l0.2-0.35l-0.01-0.01C88.33,25.55,88.41,25.34,88.41,25.11z M64.58,84.44H16.19  c-2.73,0-5.21-1.54-6.64-4.131C7.82,77.19,7.97,73.3,9.93,70.16l24.69-32.57c0.03-0.04,0.04-0.09,0.06-0.14  c0.05-0.07,0.09-0.15,0.12-0.24c0.03-0.09,0.04-0.17,0.05-0.26c0.01-0.05,0.03-0.1,0.03-0.15l0.1-22.08c0,0,0,0,0-0.01  c0-0.08-0.03-0.15-0.05-0.23c-0.01-0.1-0.02-0.19-0.05-0.28c-0.03-0.07-0.09-0.12-0.13-0.18c-0.05-0.08-0.09-0.17-0.15-0.24  c-0.06-0.05-0.13-0.08-0.19-0.12c-0.07-0.06-0.14-0.13-0.23-0.16c-0.08-0.04-0.16-0.04-0.24-0.05c-0.09-0.02-0.18-0.06-0.28-0.06  c-1.8,0-3.12-0.53-3.98-1.3c-0.86-0.77-1.27-1.79-1.27-2.76c0-2.04,1.78-4.09,5.74-4.09H53.9c3.96,0,5.729,2.05,5.729,4.09  c0,1.95-1.64,4.06-5.24,4.06c-0.01,0-0.01,0-0.01,0c-0.1,0-0.18,0.04-0.27,0.06c-0.08,0.01-0.17,0.01-0.24,0.05  c-0.09,0.03-0.15,0.1-0.23,0.15c-0.06,0.04-0.14,0.07-0.189,0.13c-0.061,0.06-0.09,0.14-0.141,0.2c-0.05,0.08-0.109,0.14-0.149,0.22  c-0.03,0.08-0.03,0.17-0.05,0.25c-0.011,0.09-0.051,0.17-0.051,0.26c0,0.01,0,0.01,0,0.01l0.011,3.18h-7.78  c-0.73,0-1.33,0.59-1.33,1.33c0,0.73,0.6,1.32,1.33,1.32h7.8l0.04,10.78h-7.84c-0.73,0-1.33,0.6-1.33,1.33s0.6,1.32,1.33,1.32h7.86  l0.01,2.82c0,0.05,0.02,0.1,0.03,0.15c0.01,0.09,0.02,0.18,0.05,0.26c0.029,0.09,0.069,0.17,0.12,0.24  c0.029,0.05,0.04,0.1,0.069,0.14l5.221,6.88h-6.66c-0.74,0-1.33,0.6-1.33,1.33s0.59,1.32,1.33,1.32h8.46c0.06,0,0.12-0.03,0.18-0.04  l3.61,4.76c0.1,0.13,0.22,0.23,0.34,0.311V84.44z M82.82,33.5v6.48c-0.061-0.01-0.12-0.04-0.181-0.04h-7.97  c-0.46,0-0.84,0.38-0.84,0.85c0,0.46,0.38,0.84,0.84,0.84h7.97c0.061,0,0.12-0.03,0.181-0.04v10.09  c-0.061-0.01-0.12-0.029-0.181-0.029h-7.97c-0.46,0-0.84,0.369-0.84,0.84c0,0.46,0.38,0.84,0.84,0.84h7.97  c0.061,0,0.12-0.03,0.181-0.04v9.66c-0.061-0.021-0.12-0.04-0.181-0.04h-7.97c-0.46,0-0.84,0.38-0.84,0.84  c0,0.47,0.38,0.84,0.84,0.84h7.97c0.061,0,0.12-0.02,0.181-0.03v9.73c-0.07-0.021-0.13-0.04-0.21-0.04h-7.96  c-0.471,0-0.841,0.37-0.841,0.84c0,0.46,0.37,0.84,0.841,0.84h7.96c0.08,0,0.14-0.029,0.21-0.05V87c-0.021,4.4-3.94,6.4-7.57,6.4  h-0.03c-3.85-0.011-7.989-2.271-7.989-7.2V33.5c0-2.73-1.04-5.13-2.08-7.07H84.84C83.84,28.35,82.82,30.79,82.82,33.5z"
   id="path5" />
<g
   id="g7">
	<path
   fill="#000000"
   d="M74.67,50.57h7.07v-2.39h-13.43V86.2c0,4.816,4.345,6.113,6.909,6.12h0.03c2.401,0,6.471-1.121,6.49-5.32   v-9.99h-7.09c-1.06,0-1.921-0.861-1.921-1.92s0.861-1.92,1.921-1.92h7.09v-7.5h-7.07c-1.059,0-1.92-0.861-1.92-1.92   s0.861-1.92,1.92-1.92h7.07v-7.42h-7.07c-1.059,0-1.92-0.861-1.92-1.92S73.611,50.57,74.67,50.57z"
   id="path9" />
</g>
<g
   id="g11">
	<path
   fill="#000000"
   d="M63.38,52.492L61.563,50c-18.118,5.596-17.993-5.383-34.938-0.076L10.846,70.732   c-1.755,2.812-1.89,6.28-0.351,9.056c1.235,2.236,3.364,3.572,5.695,3.572H63.5V52.637C63.458,52.59,63.418,52.542,63.38,52.492z"
   id="path13" />
</g>
</svg>